HIERARCHY
ROOT Hips
{
	OFFSET -3.958830 18.904000 13.208200
	CHANNELS 6 Xposition Yposition Zposition Zrotation Yrotation Xrotation 
	JOINT LHipJoint
	{
		OFFSET 0.000000 0.000000 0.000000
		CHANNELS 3 Zrotation Yrotation Xrotation
		JOINT LeftUpLeg
		{
			OFFSET 1.800000 -1.400000 0.085000
			CHANNELS 3 Zrotation Yrotation Xrotation
			JOINT LeftLeg
			{
				OFFSET 2.215000 -6.000000 0.000000
				CHANNELS 3 Zrotation Yrotation Xrotation
				JOINT LeftFoot
				{
					OFFSET 2.500000 -6.900000 0.000000
					CHANNELS 3 Zrotation Yrotation Xrotation
					JOINT LeftToeBase
					{
						OFFSET 0.200000 -0.500000 1.950000
						CHANNELS 3 Zrotation Yrotation Xrotation
						End Site
						{
							OFFSET 0.000000 0.000000 0.000000
						}
					}
				}
			}
		}
	}
	JOINT RHipJoint
	{
		OFFSET 0.000000 0.000000 0.000000
		CHANNELS 3 Zrotation Yrotation Xrotation
		JOINT RightUpLeg
		{
			OFFSET -1.800000 -1.400000 0.085000
			CHANNELS 3 Zrotation Yrotation Xrotation
			JOINT RightLeg
			{
				OFFSET -2.215000 -6.000000 0.000000
				CHANNELS 3 Zrotation Yrotation Xrotation
				JOINT RightFoot
				{
					OFFSET -2.500000 -6.900000 0.000000
					CHANNELS 3 Zrotation Yrotation Xrotation
					JOINT RightToeBase
					{
						OFFSET -0.200000 -0.500000 1.950000
						CHANNELS 3 Zrotation Yrotation Xrotation
						End Site
						{
							OFFSET 0.000000 0.000000 0.000000
						}
					}
				}
			}
		}
	}
	JOINT LowerBack
	{
		OFFSET 0.000000 0.000000 0.000000
		CHANNELS 3 Zrotation Yrotation Xrotation
		JOINT Spine
		{
			OFFSET -0.087000 1.940000 -0.288900
			CHANNELS 3 Zrotation Yrotation Xrotation
			JOINT Spine1
			{
				OFFSET 0.000000 1.950000 0.060000
				CHANNELS 3 Zrotation Yrotation Xrotation
				JOINT Neck
				{
					OFFSET 0.000000 0.000000 0.000000
					CHANNELS 3 Zrotation Yrotation Xrotation
					JOINT Neck1
					{
						OFFSET 0.000000 1.600000 0.340000
						CHANNELS 3 Zrotation Yrotation Xrotation
						JOINT Head
						{
							OFFSET 0.000000 1.667000 -0.240000
							CHANNELS 3 Zrotation Yrotation Xrotation
							End Site
							{
								OFFSET 0.000000 0.000000 0.000000
							}
						}
					}
				}
				JOINT LeftShoulder
				{
					OFFSET 0.000000 0.000000 0.000000
					CHANNELS 3 Zrotation Yrotation Xrotation
					JOINT LeftArm
					{
						OFFSET 2.700000 1.550000 -0.730000
						CHANNELS 3 Zrotation Yrotation Xrotation
						JOINT LeftForeArm
						{
							OFFSET 5.450000 0.000000 0.000000
							CHANNELS 3 Zrotation Yrotation Xrotation
							JOINT LeftHand
							{
								OFFSET 3.450000 0.000000 0.000000
								CHANNELS 3 Zrotation Yrotation Xrotation
								JOINT LeftHandIndex1
								{
									OFFSET 0.750000 0.000000 0.000000
									CHANNELS 3 Zrotation Yrotation Xrotation
									End Site
									{
										OFFSET 0.000000 0.000000 0.000000
									}
								}
							}
						}
					}
				}
				JOINT RightShoulder
				{
					OFFSET 0.000000 0.000000 0.000000
					CHANNELS 3 Zrotation Yrotation Xrotation
					JOINT RightArm
					{
						OFFSET -2.700000 1.550000 -0.730000
						CHANNELS 3 Zrotation Yrotation Xrotation
						JOINT RightForeArm
						{
							OFFSET -5.450000 0.000000 0.000000
							CHANNELS 3 Zrotation Yrotation Xrotation
							JOINT RightHand
							{
								OFFSET -3.450000 0.000000 0.000000
								CHANNELS 3 Zrotation Yrotation Xrotation
								JOINT RightHandIndex1
								{
									OFFSET -0.750000 0.000000 0.000000
									CHANNELS 3 Zrotation Yrotation Xrotation
									End Site
									{
										OFFSET 0.000000 0.000000 0.000000
									}
								}
							}
						}
					}
				}
			}
		}
	}
}
MOTION
Frames: 13
Frame Time: 0.016667
-0.896960 17.403490 -2.301560 -0.379977 -10.174695 2.300327 -15.218807 13.445761 2.824363 9.199141 -1.724608 -13.157964 -12.449490 9.373889 20.299829 -0.470388 6.015262 2.665456 0.368180 0.024680 0.268570 18.199045 -10.781471 2.203202 -18.980767 0.323898 -22.541786 4.532772 -5.331993 15.959965 0.125673 -3.575885 3.253319 0.236950 0.622730 0.158370 -3.310818 -2.231258 -6.563183 4.453813 -2.199300 3.731052 -4.339739 -1.638691 7.859858 0.859691 -4.262816 -5.611934 -8.390467 7.148603 26.936572 -3.848230 5.079510 -2.599760 -21.344321 -0.021707 0.129035 -43.118171 -2.835334 -3.838524 -13.294395 -21.916923 0.556576 -4.062763 2.894390 0.324760 0.465910 -0.353280 0.279970 19.739905 2.322901 3.247885 52.434901 0.463670 -7.626656 48.703062 41.679441 12.844896 1.930956 -1.866108 -0.437420 0.363440 -0.012430 -0.196000 
-0.906260 17.400270 -2.299950 -0.467115 -9.892047 2.507429 -15.208275 13.407620 2.865999 9.702800 -1.794316 -13.666598 -13.027236 9.697072 20.681065 -0.443688 6.145174 2.623265 0.342830 -0.004950 0.235330 18.209343 -10.780244 2.192449 -18.804542 0.378665 -22.530738 4.516088 -5.340650 16.084716 0.146189 -3.582559 3.275760 0.223360 0.640570 0.137520 -3.344516 -2.188931 -6.586033 4.838198 -2.168713 3.738603 -4.395113 -1.613311 7.614924 0.868203 -4.481269 -5.753188 -8.750143 7.213558 26.741807 -3.667650 4.928340 -1.800890 -20.745233 0.488748 0.081250 -43.792790 -2.567815 -4.034925 -13.562283 -22.573895 0.671382 -4.057772 2.896467 0.317310 0.472220 -0.380690 0.286790 19.100160 2.006335 3.448601 52.447226 -0.175806 -7.615531 51.318737 42.775054 14.257145 1.925825 -1.896136 -0.454240 0.367300 -0.005420 -0.193030 
-0.915900 17.405450 -2.294990 -0.639600 -9.381894 2.835845 -15.186824 13.352877 2.900028 10.060332 -1.904304 -14.432128 -13.327581 9.903750 21.100633 -0.438894 6.263685 2.591783 0.311900 -0.054680 0.217470 18.231836 -10.806811 2.179634 -18.343906 0.499328 -22.558254 4.334942 -5.326226 16.308724 0.158419 -3.582585 3.280817 0.200960 0.680660 0.154070 -3.414047 -2.066073 -6.585747 5.553779 -2.073773 3.698785 -4.640954 -1.516704 7.460604 1.012747 -4.570420 -5.768224 -8.746354 7.045072 26.081496 -3.913590 4.716260 -1.328300 -20.112225 1.461883 -0.125093 -44.674526 -2.005478 -4.522513 -13.719756 -24.296199 0.827769 -4.084254 2.895483 0.313150 0.497170 -0.400080 0.287830 18.143292 1.115944 3.586338 52.172960 -1.119695 -7.407917 56.467801 44.751250 17.196946 1.914859 -1.944765 -0.469370 0.375270 0.016500 -0.188720 
-0.919080 17.418050 -2.291940 -0.871828 -8.555879 3.144314 -15.165728 13.317290 2.933988 10.363092 -1.981032 -15.193129 -13.378110 9.935266 21.227674 -0.442293 6.257803 2.581069 0.296180 -0.074740 0.196760 18.248119 -10.860789 2.159803 -17.745014 0.610719 -22.535392 3.856509 -5.248258 16.647307 0.170704 -3.574213 3.292250 0.186450 0.676560 0.163410 -3.472320 -1.931170 -6.595799 6.225374 -1.945088 3.796345 -4.691004 -1.411895 7.319830 1.255784 -4.512199 -5.827615 -8.511027 6.619614 25.710935 -4.538760 4.638150 -0.765770 -19.672933 2.428263 -0.267788 -45.600680 -1.019189 -5.348505 -14.261812 -26.974076 1.185288 -4.072608 2.943079 0.303160 0.506390 -0.411360 0.287080 17.205676 0.171134 3.792340 51.834182 -2.329450 -7.212673 62.886666 47.112284 21.138948 1.908788 -2.022509 -0.463970 0.345230 0.022940 -0.189700 
-0.905280 17.436890 -2.290840 -1.244721 -7.162577 3.545714 -15.137727 13.279662 2.957982 10.515848 -2.109031 -16.050044 -13.135434 9.822147 21.291000 -0.465553 6.204108 2.591138 0.254960 -0.131800 0.168640 18.269753 -10.914948 2.160927 -17.201553 0.713811 -22.476242 3.762947 -5.283542 17.012310 0.194345 -3.592468 3.292930 0.156430 0.684720 0.160600 -3.554835 -1.785879 -6.617178 7.182942 -1.910972 3.972580 -4.620499 -1.413464 7.088007 1.445407 -4.427536 -5.890036 -8.241883 5.993861 25.395207 -4.858320 4.170220 -0.031380 -19.174424 3.497911 -0.358444 -46.933064 0.145210 -6.261988 -15.601344 -30.146460 1.791666 -4.069254 2.980130 0.294760 0.515220 -0.439510 0.268710 16.309004 -0.912930 3.968742 51.294471 -3.642646 -7.078734 69.113291 49.625617 25.530396 1.913195 -2.069262 -0.473880 0.327850 0.050980 -0.195470 
-0.884100 17.465280 -2.289240 -1.338386 -4.958865 3.630002 -15.125571 13.272938 2.997730 10.333826 -2.311453 -16.775934 -12.802376 9.625591 21.395927 -0.473050 6.077257 2.613209 0.241710 -0.158640 0.173970 18.263071 -10.972754 2.164236 -17.198380 0.621687 -21.786171 4.124912 -5.447437 17.019455 0.181336 -3.613891 3.289257 0.122990 0.636630 0.144130 -3.580833 -1.715399 -6.700014 7.533265 -1.842749 4.678481 -4.354763 -1.359612 6.799772 1.678139 -4.044807 -6.095806 -7.650391 4.939068 26.103807 -4.619290 3.300260 -0.405960 -18.488823 4.358903 -0.353475 -48.086009 1.164738 -7.167525 -18.130631 -33.740455 2.871153 -4.000878 3.008531 0.328350 0.468160 -0.417190 0.247930 15.171646 -1.940138 4.281641 51.604820 -5.198634 -7.497359 74.001624 51.752142 29.285114 1.943161 -2.062925 -0.466110 0.312210 0.053310 -0.206590 
-0.854980 17.498950 -2.287880 -1.365456 -2.425464 3.619312 -15.133939 13.269641 3.018018 10.016623 -2.472204 -17.311795 -12.315412 9.323195 21.329571 -0.489929 5.894977 2.659600 0.262480 -0.149300 0.218470 18.235287 -11.034908 2.170550 -17.399264 0.491966 -20.820536 4.574888 -5.601983 16.689814 0.139082 -3.643508 3.275341 0.103420 0.567440 0.144220 -3.555996 -1.634797 -6.775535 7.342718 -1.433215 5.335189 -3.636847 -1.002987 6.829515 2.031008 -3.108215 -6.313642 -6.128905 3.344642 26.955741 -5.027910 2.697530 -1.341610 -17.943488 4.826370 -0.283362 -48.998475 1.920272 -7.885862 -21.846155 -37.111907 4.441171 -3.922382 3.049533 0.376360 0.417470 -0.365350 0.238970 13.999279 -2.913850 4.628001 52.163689 -6.912222 -8.306053 77.905871 53.746928 32.469800 1.968166 -2.056412 -0.447220 0.289450 0.026710 -0.224540 
-0.816520 17.525370 -2.290650 -1.441241 0.309910 3.741412 -15.141390 13.242945 3.034865 9.692509 -2.643767 -18.034659 -11.841205 9.038279 21.259800 -0.504326 5.724821 2.708153 0.264060 -0.148230 0.236340 18.217859 -11.090670 2.168282 -17.470576 0.399521 -20.052167 4.747743 -5.660380 16.341513 0.124367 -3.666168 3.275849 0.087770 0.530020 0.141380 -3.558037 -1.526327 -6.812226 7.364953 -1.061638 5.661739 -2.833132 -0.707287 6.904650 2.217500 -2.346138 -6.441527 -4.844969 1.787031 27.185709 -5.542720 2.006420 -1.648280 -17.035882 5.708027 -0.231012 -50.058464 2.627895 -8.247396 -26.893159 -40.270611 6.733890 -3.883087 3.105866 0.385090 0.398290 -0.345300 0.228250 12.774311 -4.186247 4.835803 52.488678 -8.539197 -8.899218 81.830627 55.878984 36.036146 1.990870 -2.051463 -0.431080 0.272280 0.014790 -0.231480 
-0.765590 17.542730 -2.294170 -1.742641 3.021018 3.933828 -15.128282 13.172840 3.048785 9.516812 -2.775224 -18.695522 -11.621778 8.773222 20.871964 -0.557026 5.588630 2.750852 0.254910 -0.156280 0.222220 18.228071 -11.150978 2.166969 -17.460807 0.356975 -19.419469 4.994527 -5.766720 16.170089 0.117316 -3.724976 3.267424 0.086640 0.531810 0.136280 -3.635096 -1.335734 -6.827726 7.951154 -0.778218 5.858186 -2.353248 -0.479688 6.935310 2.279473 -1.657674 -6.384479 -3.592524 0.494000 26.941902 -5.606640 1.188050 -1.997700 -16.241825 6.872153 -0.185316 -50.366096 3.829617 -8.271905 -34.350211 -43.793854 10.465209 -3.867954 3.174884 0.397990 0.399980 -0.349860 0.224310 11.859123 -5.781194 4.760284 52.597574 -9.899598 -9.275021 85.048798 57.622222 39.231796 1.987783 -2.027444 -0.441670 0.282100 0.028740 -0.237070 
-0.715760 17.562200 -2.302580 -1.882268 5.720143 3.768580 -15.132324 13.158122 3.078071 9.350484 -2.806426 -18.912247 -11.580615 8.591151 20.454243 -0.551475 5.444543 2.783204 0.281390 -0.120740 0.240180 18.207751 -11.237043 2.145545 -17.390950 0.263625 -18.546206 4.719668 -5.754572 16.134304 0.081325 -3.732567 3.269561 0.080340 0.481880 0.146710 -3.647211 -1.208445 -6.882547 7.923236 -0.358818 6.627833 -1.586872 -0.088500 6.753176 2.315592 -0.955371 -6.382272 -2.484466 -1.112411 27.433137 -5.648860 0.159290 -3.013320 -15.739126 7.890387 -0.082805 -50.077545 5.032568 -8.023549 -42.697510 -47.705796 15.513101 -3.806896 3.272827 0.417730 0.364420 -0.305570 0.224740 11.306789 -7.087991 4.728597 52.523137 -11.119538 -9.735170 88.211786 59.976333 42.966408 2.039749 -1.968120 -0.404050 0.262960 0.009510 -0.233300 
-0.658490 17.569510 -2.320020 -2.090923 8.756406 3.666298 -15.136351 13.103009 3.109402 9.269993 -2.909712 -19.349751 -11.614690 8.474120 20.254927 -0.597904 5.359886 2.787976 0.323890 -0.072070 0.293020 18.200263 -11.335844 2.094760 -17.253085 0.172403 -17.969134 4.278964 -5.812483 16.843808 0.046104 -3.782003 3.233004 0.110600 0.426400 0.144810 -3.688117 -1.012063 -6.890395 8.040971 0.049339 7.108108 -1.017409 0.280741 6.963848 2.436760 0.163883 -6.196359 -0.612284 -3.066154 27.440640 -6.034060 -0.745300 -4.413580 -15.446025 8.619641 -0.042254 -48.874343 6.018240 -7.267510 -53.319724 -50.826541 22.213996 -3.769150 3.355446 0.447580 0.334840 -0.268770 0.210540 10.812772 -8.547399 4.480753 52.469461 -12.039793 -10.207328 90.036908 62.074453 45.645657 2.077192 -1.896030 -0.396610 0.261300 -0.010010 -0.255080 
-0.598820 17.567070 -2.349040 -2.193039 12.245606 3.648724 -15.155671 13.050821 3.128352 8.907465 -3.144122 -20.194434 -11.127692 8.302297 20.676078 -0.682643 5.306890 2.794709 0.357660 -0.038820 0.333100 18.187385 -11.423820 2.031204 -17.247953 0.062751 -17.619160 3.900094 -5.973968 17.978398 0.019558 -3.891428 3.179093 0.152100 0.411560 0.146090 -3.711978 -0.850906 -6.853056 7.880217 0.378655 7.250209 -0.359444 0.515761 7.394711 2.522633 1.491620 -5.949524 1.601752 -5.133364 27.144544 -6.425390 -1.761770 -5.381250 -15.346554 8.915342 0.017965 -47.268581 6.635420 -6.182616 -64.507122 -52.854394 29.580745 -3.778797 3.406251 0.473900 0.335680 -0.255790 0.204080 10.641953 -9.813756 4.118872 52.387046 -12.613906 -10.650788 90.486399 64.736193 47.677921 2.118004 -1.772285 -0.414620 0.285770 -0.013470 -0.278970 
-0.536150 17.566170 -2.385720 -2.207875 15.964057 3.408447 -15.196893 13.048277 3.156520 8.355599 -3.406460 -20.985507 -10.382256 8.108745 21.372090 -0.744425 5.206790 2.802697 0.418310 0.035040 0.406050 18.146765 -11.514600 1.953497 -17.272839 -0.102716 -17.228271 3.384911 -6.169089 19.656386 -0.016320 -4.015626 3.116243 0.204520 0.350600 0.123200 -3.677168 -0.785868 -6.829603 7.342086 0.743559 7.752035 0.627033 0.796203 7.665260 2.628422 2.906295 -5.734710 3.853907 -7.354270 27.152167 -6.618760 -2.785560 -6.691350 -15.744489 8.740703 0.018267 -45.188622 6.781035 -5.000838 -75.322980 -53.591498 36.725696 -3.760687 3.440900 0.494200 0.304970 -0.225830 0.187150 10.976833 -10.616359 3.802552 51.844602 -13.277832 -11.232875 90.313676 68.180145 49.570574 2.249993 -1.547847 -0.411890 0.298770 -0.044700 -0.305970 
